<?xml version="1.0" encoding="utf-8"?>
<!-- Generator: Adobe Illustrator 17.0.0, SVG Export Plug-In . SVG Version: 6.00 Build 0)  -->
<!DOCTYPE svg PUBLIC "-//W3C//DTD SVG 1.1//EN" "http://www.w3.org/Graphics/SVG/1.1/DTD/svg11.dtd">
<svg version="1.1" xmlns="http://www.w3.org/2000/svg" xmlns:xlink="http://www.w3.org/1999/xlink" x="0px" y="0px"
	 width="15.058px" height="16.018px" viewBox="0 0 15.058 16.018" enable-background="new 0 0 15.058 16.018" xml:space="preserve">
<symbol  id="arrow_x5F_full_x5F_screen" viewBox="0 -12 12 12">
	<polygon fill="none" points="0,-12 12,-12 12,0 0,0 	"/>
	<polyline fill="none" stroke="#58C3F1" stroke-miterlimit="10" points="7,-0.5 11.5,-0.5 11.5,-5 	"/>
	<polyline fill="none" stroke="#58C3F1" stroke-miterlimit="10" points="0.5,-7 0.5,-11.5 5,-11.5 	"/>
	<polygon fill="#21AFEC" points="10,-2 9,-2 9,-3 10,-3 	"/>
	<polygon fill="#21AFEC" points="11,-1 10,-1 10,-2 11,-2 	"/>
	<polygon fill="#21AFEC" points="2,-10 1,-10 1,-11 2,-11 	"/>
	<polygon fill="#21AFEC" points="9,-3 8,-3 8,-4 9,-4 	"/>
	<polygon fill="#21AFEC" points="8,-4 7,-4 7,-5 8,-5 	"/>
	<polygon fill="#21AFEC" points="7,-5 6,-5 6,-6 7,-6 	"/>
	<polygon fill="#21AFEC" points="6,-6 5,-6 5,-7 6,-7 	"/>
	<polygon fill="#21AFEC" points="5,-7 4,-7 4,-8 5,-8 	"/>
	<polygon fill="#21AFEC" points="4,-8 3,-8 3,-9 4,-9 	"/>
	<polygon fill="#21AFEC" points="3,-9 2,-9 2,-10 3,-10 	"/>
	<polygon display="none" fill="none" points="0,0 12,0 12,-12 0,-12 	"/>
</symbol>
<symbol  id="hand_2" viewBox="-7.529 -8.009 15.058 16.018">
	<path fill="#FFFFFF" d="M-4.261-4.269c-0.285,0.359-0.628,1.094-1.243,1.984C-5.852-1.78-6.715-0.832-6.971-0.35
		c-0.224,0.427-0.2,0.617-0.147,0.972c0.094,0.627,0.737,1.115,1.425,1.051c0.518-0.049,0.959-0.393,1.354-0.717
		c0.24-0.196,0.534-0.574,0.71-0.788c0.164-0.196,0.205-0.276,0.378-0.509c0.23-0.308,0.302-0.459,0.214-0.121
		C-3.108,0.033-3.223,0.882-3.391,1.63c-0.129,0.567-0.16,0.658-0.281,1.094c-0.129,0.463-0.195,0.789-0.316,1.281
		c-0.084,0.347-0.234,1.059-0.276,1.458C-4.322,6.01-4.352,6.901-4.001,7.311c0.275,0.322,0.905,0.418,1.296,0.221
		c0.512-0.26,0.803-1.004,0.936-1.301c0.239-0.534,0.387-1.15,0.515-1.961c0.164-1.031,0.467-2.461,0.477-2.762
		c0.023,0.369-0.068,1.145-0.004,1.5c0.059,0.32,0.328,0.692,0.666,0.795c0.286,0.084,0.621,0.114,0.916,0.055
		c0.312-0.064,0.643-0.289,0.766-0.5C1.93,2.734,1.937,1.46,1.953,1.528c0.085,0.375,0.07,1.229,0.283,1.584
		c0.141,0.234,0.497,0.445,0.688,0.479c0.294,0.053,0.655,0.068,0.964,0.009c0.249-0.05,0.586-0.345,0.677-0.487
		c0.218-0.345,0.342-1.316,0.379-1.658C4.958,1.312,5.017,1.847,5.236,2.19c0.406,0.639,1.843,0.764,1.898-0.64
		c0.025-0.654,0.02-0.624,0.02-1.064c0-0.518-0.012-0.828-0.04-1.203C7.083-1.115,6.997-2.02,6.872-2.458
		C6.786-2.759,6.501-3.436,6.22-3.841c0,0-1.074-1.25-1.191-1.813C4.911-6.217,4.951-6.22,4.927-6.618
		C4.904-7.017,5.048-7.542,5.048-7.542S4.246-7.646,3.814-7.575c-0.391,0.062-0.875,0.841-1,1.077
		C2.642-6.17,2.275-6.233,2.132-6.474c-0.226-0.383-0.709-1.07-1.051-1.113c-0.668-0.084-2.054-0.031-3.138-0.02
		c0,0,0.184,1.01-0.228,1.357c-0.305,0.26-0.83,0.784-1.144,1.062L-4.261-4.269z"/>
	<path fill="none" stroke="#000000" stroke-width="0.75" stroke-linecap="round" stroke-linejoin="round" d="M-4.261-4.269
		c-0.285,0.359-0.628,1.094-1.243,1.984C-5.852-1.78-6.715-0.832-6.971-0.35c-0.224,0.427-0.2,0.617-0.147,0.972
		c0.094,0.627,0.737,1.115,1.425,1.051c0.518-0.049,0.959-0.393,1.354-0.717c0.24-0.196,0.534-0.574,0.71-0.788
		c0.164-0.196,0.205-0.276,0.378-0.509c0.23-0.308,0.302-0.459,0.214-0.121C-3.108,0.033-3.223,0.882-3.391,1.63
		c-0.129,0.567-0.16,0.658-0.281,1.094c-0.129,0.463-0.195,0.789-0.316,1.281c-0.084,0.347-0.234,1.059-0.276,1.458
		C-4.322,6.01-4.352,6.901-4.001,7.311c0.275,0.322,0.905,0.418,1.296,0.221c0.512-0.26,0.803-1.004,0.936-1.301
		c0.239-0.534,0.387-1.15,0.515-1.961c0.164-1.031,0.467-2.461,0.477-2.762c0.023,0.369-0.068,1.145-0.004,1.5
		c0.059,0.32,0.328,0.692,0.666,0.795c0.286,0.084,0.621,0.114,0.916,0.055c0.312-0.064,0.643-0.289,0.766-0.5
		C1.93,2.734,1.937,1.46,1.953,1.528c0.085,0.375,0.07,1.229,0.283,1.584c0.141,0.234,0.497,0.445,0.688,0.479
		c0.294,0.053,0.655,0.068,0.964,0.009c0.249-0.05,0.586-0.345,0.677-0.487c0.218-0.345,0.342-1.316,0.379-1.658
		C4.958,1.312,5.017,1.847,5.236,2.19c0.406,0.639,1.843,0.764,1.898-0.64c0.025-0.654,0.02-0.624,0.02-1.064
		c0-0.518-0.012-0.828-0.04-1.203C7.083-1.115,6.997-2.02,6.872-2.458C6.786-2.759,6.501-3.436,6.22-3.841
		c0,0-1.074-1.25-1.191-1.813C4.911-6.217,4.951-6.22,4.927-6.618C4.904-7.017,5.048-7.542,5.048-7.542S4.246-7.646,3.814-7.575
		c-0.391,0.062-0.875,0.841-1,1.077C2.642-6.17,2.275-6.233,2.132-6.474c-0.226-0.383-0.709-1.07-1.051-1.113
		c-0.668-0.084-2.054-0.031-3.138-0.02c0,0,0.184,1.01-0.228,1.357c-0.305,0.26-0.83,0.784-1.144,1.062L-4.261-4.269z"/>
	<line fill="none" stroke="#000000" stroke-width="0.75" stroke-linecap="round" x1="3.974" y1="-4.622" x2="3.974" y2="-1.163"/>
	<line fill="none" stroke="#000000" stroke-width="0.75" stroke-linecap="round" x1="1.958" y1="-4.635" x2="1.943" y2="-1.161"/>
	<line fill="none" stroke="#000000" stroke-width="0.75" stroke-linecap="round" x1="-0.038" y1="-1.193" x2="-0.016" y2="-4.618"/>
</symbol>
<g id="back">
	<g id="header_x5F_company_x5F_name_2_">
	</g>
	<g id="header_x5F_company_x5F_name_3_">
	</g>
	<g id="header_x5F_company_x5F_name_1_">
	</g>
	<g id="header_x5F_company_x5F_name">
	</g>
</g>
<g id="system">
</g>
<g id="company_page">
	<g id="domprom-funnels">
	</g>
	<g id="domprom-funnels_1_">
	</g>
</g>
<g id="popup">
</g>
<g id="popup_x5F_2">
	
		<use xlink:href="#hand_2"  width="15.058" height="16.018" x="-7.529" y="-8.009" transform="matrix(1 0 0 -1 7.5288 8.0094)" overflow="visible"/>
</g>
<g id="backup" display="none">
</g>
</svg>
